<svg xmlns="http://www.w3.org/2000/svg" viewBox="0 0 32 32">
<g id="k414" >
    <path fill-rule="evenodd" d="M29.29 0H10.82C9.14 0 7.78 1.37 7.78 3.06v9.81c0 1.69 1.36 3.06 3.04 3.06h6.15c.17 0 .28.17.21.32l-5.61 12.41c-.38.84-.35 1.7.07 2.36.4.62 1.09.98 1.91.98h4.57c1.36 0 2.83-1 3.43-2.32l6.22-13.76h1.54c1.49 0 2.69-1.21 2.69-2.69V2.71C32 1.22 30.78 0 29.29 0ZM10.23 12.87V3.06c0-.33.27-.59.59-.59h2.64c.17 0 .32.14.32.32v10.36c0 .17-.14.32-.32.32h-2.65c-.33 0-.59-.26-.59-.59Zm19.32.34c0 .13-.11.24-.24.24h-2.33c-.48 0-.92.28-1.11.72l-6.55 14.48c-.21.47-.84.88-1.2.88h-4.25l6.48-14.33c.17-.38.14-.82-.08-1.18-.23-.35-.61-.57-1.03-.57h-2.71c-.16 0-.29-.13-.29-.29V2.75c0-.16.13-.29.29-.29h12.78c.13 0 .24.11.24.24v10.51Z"/>
    <rect width="5.99" height="1.72" y="2.91" rx=".86" ry=".86"/>
    <rect width="5.99" height="1.72" y="6.99" rx=".86" ry=".86"/>
    <rect width="5.99" height="1.72" y="11.07" rx=".86" ry=".86"/>
  </g>
</svg>