<svg xmlns="http://www.w3.org/2000/svg">
<g id="k331" viewBox="0 0 32 27">
    <path d="M28.99 19.62H3.01c-1.66 0-3.01 1.35-3.01 3V24c0 1.65 1.35 3 3.01 3H29c1.66 0 3.01-1.35 3.01-3v-1.38c0-1.65-1.35-3-3.01-3Zm.52 4.38c0 .27-.24.5-.52.5H3.01c-.28 0-.52-.23-.52-.5v-1.38c0-.27.24-.5.52-.5H29c.28 0 .52.23.52.5V24ZM12.43 17.7h7.14c1.33 0 2.41-1.09 2.41-2.42V2.42C21.98 1.08 20.9 0 19.57 0h-7.14c-1.33 0-2.41 1.09-2.41 2.42v12.86c0 1.33 1.08 2.42 2.41 2.42Zm.08-15.2h6.97v12.7h-6.97V2.5Z"/>
    <path d="M16 8.89c-1.11 0-2.02.92-2.02 2.04s.91 2.04 2.02 2.04 2.02-.92 2.02-2.04-.91-2.04-2.02-2.04Z"/>
  </g>
</svg>