<svg xmlns="http://www.w3.org/2000/svg"  viewBox="0 0 32 32">
<g  id="k428">
    <path d="m28.85 3.56-.48-.48C26.38 1.09 23.73 0 20.9 0c-2.82 0-5.47 1.09-7.47 3.08L9.59 6.91C6.77 9.72 6.1 13.98 7.91 17.52c.29.57.15 1.27-.35 1.7L.76 25.2c-1.01 1.01-1.01 2.64 0 3.65l2.4 2.39c.49.49 1.14.76 1.84.76.69 0 1.35-.27 1.89-.82l5.93-6.73c.43-.49 1.13-.64 1.7-.35 3.56 1.81 7.84 1.13 10.65-1.68l3.67-3.66c4.21-4.19 4.21-11.01 0-15.21ZM15.64 21.92c-1.57-.8-3.5-.42-4.69.92l-5.93 6.73-.11-.06-2.4-2.39s-.05-.13-.06-.13l6.75-5.92c1.34-1.18 1.72-3.1.92-4.66-.58-1.14-.79-2.39-.69-3.6l9.82 9.79c-1.22.1-2.46-.11-3.61-.69Zm11.45-4.89-3.67 3.66c-.61.61-1.32 1.06-2.07 1.39L9.96 10.72c.33-.75.78-1.46 1.39-2.07l3.84-3.83c1.53-1.52 3.55-2.36 5.71-2.36s4.18.84 5.71 2.36l.48.48c3.24 3.23 3.24 8.5 0 11.73ZM3.93 8.28c1.02 0 1.99-.4 2.71-1.12 1.49-1.49 1.49-3.91 0-5.39C5.92 1.05 4.95.65 3.93.65s-1.99.4-2.71 1.12c-1.49 1.49-1.49 3.91 0 5.39.72.72 1.69 1.12 2.71 1.12ZM2.54 3.07c.37-.37.87-.58 1.39-.58s1.02.2 1.39.58c.77.77.77 2.02 0 2.79-.74.74-2.04.74-2.79 0-.77-.77-.77-2.02 0-2.79Z"/>
  </g>
</svg>