<svg xmlns="http://www.w3.org/2000/svg"  viewBox="0 0 32 32">
<g id="k1105">
    <path d="M27.51 21.8c-1-.99-2.64-.99-3.65 0l-.23.23-1.75-1.75c6.09-6.21 10.13-12.74 10.13-16.46 0-1.12-.33-2.01-.99-2.66-3.21-3.17-11.87 1.96-19.16 8.86L10.1 8.26l.17-.17c.5-.49.77-1.15.77-1.85s-.27-1.36-.77-1.85L7.01 1.17c-1.59-1.56-4.2-1.56-5.8.01C.43 1.95 0 2.98 0 4.07s.43 2.12 1.21 2.89l3.28 3.24c.5.5 1.16.75 1.83.75s1.32-.25 1.83-.75l.43-.42 1.75 1.75C4.13 17.79 0 24.42 0 28.18c0 1.12.33 2.01.99 2.66.67.66 1.57.96 2.65.96 4.15 0 10.89-4.45 16.7-10.01l1.75 1.75-.37.36c-.5.49-.77 1.15-.77 1.85 0 .7.28 1.35.77 1.85l3.26 3.22c.8.79 1.85 1.18 2.9 1.18s2.1-.39 2.9-1.18c.78-.77 1.21-1.8 1.21-2.89s-.43-2.12-1.21-2.89L27.5 21.8ZM6.2 8.46 2.92 5.22c-.31-.31-.48-.72-.48-1.15s.17-.84.48-1.15c.33-.32.76-.49 1.19-.49s.86.16 1.19.49l3.26 3.22s.05.07.05.11-.02.08-.05.11l-2.13 2.1c-.06.06-.17.06-.23 0ZM2.7 29.1c-.22-.22-.26-.62-.26-.93 0-2.71 3.49-8.91 10.17-15.51C19.97 5.39 25.94 2.6 28.34 2.6c.45 0 .77.1.96.28.22.22.26.62.26.93 0 2.71-3.49 8.91-10.17 15.51-8.73 8.63-15.51 10.96-16.69 9.79Zm26.38-.03c-.66.65-1.73.65-2.38 0l-3.26-3.22s-.05-.07-.05-.11.02-.08.05-.11l2.13-2.1c.06-.06.17-.06.23 0l3.28 3.24c.31.31.49.72.49 1.15s-.17.84-.49 1.15Z"/>
    <path d="M21.11 14.45c0-.95-.37-1.85-1.04-2.52-1.39-1.39-3.65-1.39-5.04 0l-3.1 3.1c-.67.67-1.04 1.57-1.04 2.52s.37 1.85 1.04 2.52c.67.67 1.57 1.04 2.52 1.04s1.85-.37 2.52-1.04l3.1-3.1c.67-.67 1.04-1.57 1.04-2.52Zm-2.56 1-3.1 3.1c-.54.54-1.47.54-2.01 0-.27-.27-.42-.63-.42-1.01s.15-.74.42-1l3.1-3.1c.28-.28.64-.42 1-.42s.73.14 1 .42.42.63.42 1-.15.74-.42 1Z"/>
  </g>
</svg>