
<svg xmlns="http://www.w3.org/2000/svg"  viewBox="0 0 32 27">
<g  id="k6">
    <path d="M30.75 11.72h-4.57V6.58h4.57c.69 0 1.25-.55 1.25-1.23s-.56-1.23-1.25-1.23h-4.57v-.2c0-2.16-1.77-3.91-3.95-3.91H4.67C2.09 0 0 2.06 0 4.6v17.8C0 24.94 2.09 27 4.67 27h10.14c2.57 0 4.67-2.06 4.67-4.6v-4.11h2.75c2.18 0 3.95-1.76 3.95-3.91v-.2h4.57c.69 0 1.25-.55 1.25-1.23s-.56-1.23-1.25-1.23ZM16.98 22.4c0 1.18-.97 2.14-2.17 2.14H4.67c-1.2 0-2.17-.96-2.17-2.14V4.6c0-1.18.97-2.14 2.17-2.14h10.14c1.2 0 2.17.96 2.17 2.14v17.8Zm6.7-8.02c0 .8-.65 1.45-1.45 1.45h-2.75V4.6c0-.77-.21-1.49-.56-2.14h3.31c.8 0 1.45.65 1.45 1.45v10.46Z"/>
  </g>
</svg>