<svg xmlns="http://www.w3.org/2000/svg">
<g id="k678" viewBox="0 0 32 29">
    <path d="M26.29,0h-4.04c-.69,0-1.25,.55-1.25,1.23v3.66c0,.34-.29,.61-.64,.61H11.65c-.35,0-.64-.28-.64-.61V1.23c0-.68-.56-1.23-1.25-1.23H5.71C2.56,0,0,2.51,0,5.6V23.4c0,3.09,2.56,5.6,5.71,5.6H26.29c3.15,0,5.71-2.51,5.71-5.6V5.6c0-3.09-2.56-5.6-5.71-5.6Zm3.21,23.4c0,1.73-1.44,3.13-3.21,3.13H5.71c-1.77,0-3.21-1.4-3.21-3.13V5.6c0-1.73,1.44-3.13,3.21-3.13h2.79v2.43c0,1.7,1.41,3.08,3.14,3.08h8.71c1.73,0,3.14-1.38,3.14-3.08V2.47h2.79c1.77,0,3.21,1.4,3.21,3.13V23.4Z"/>
    <path d="M26.16,19.26c.34,0,.65-.2,.78-.52,.13-.31,.06-.67-.18-.91l-2.06-2.05c-.16-.16-.38-.25-.6-.25h-3.2c-.29,0-.55,.14-.71,.38l-.97,1.47H7.49c-1.38,0-2.51,1.21-2.51,2.69s1.12,2.69,2.51,2.69h11.73l.97,1.47c.16,.24,.42,.38,.71,.38h3.2c.23,0,.44-.09,.6-.25l2.06-2.05c.24-.24,.31-.6,.18-.91-.13-.31-.44-.52-.78-.52h-2.59l-.53-.81,.53-.81h2.59Zm-3.77-1.29l-1.07,1.64c-.09,.13-.13,.3-.13,.47s.05,.32,.13,.45l1.07,1.64c.16,.24,.43,.39,.72,.39h1.02l-.38,.38h-2.38l-.97-1.47c-.16-.24-.42-.38-.71-.38H7.49c-.44,0-.81-.47-.81-1.02s.37-1.01,.81-1.01h12.19c.29,0,.55-.14,.71-.38l.97-1.47h2.38l.38,.38h-1.02c-.29,0-.56,.15-.72,.39Z"/>
    <path d="M26.16,11.58h-8.47v-.18c0-.46-.38-.84-.85-.84h-1.92c-.11-.34-.42-.6-.8-.6H7.48c-1.37,0-2.49,1.1-2.49,2.46s1.12,2.46,2.49,2.46h6.65c.38,0,.69-.25,.8-.6h1.92c.47,0,.85-.38,.85-.84v-.18h8.47c.47,0,.85-.38,.85-.84s-.38-.84-.85-.84Zm-19.48,.84c0-.43,.35-.78,.79-.78h5.8v1.55H7.48c-.43,0-.79-.35-.79-.78Zm9.31,.18h-1.02v-.36h1.02v.36Z"/>
  </g>
</svg>