<svg xmlns="http://www.w3.org/2000/svg" viewBox="0 0 32 32">
<g id="k1595" >
    <path d="M30.44.19c-.94-.39-2.03-.18-2.75.55L.74 27.69c-.72.72-.94 1.8-.55 2.75C.58 31.39 1.5 32 2.52 32h26.95c1.39 0 2.52-1.13 2.52-2.52V2.53c0-1.02-.61-1.94-1.56-2.33Zm-5.11 29.27v-.31c0-.51-.41-.92-.92-.92s-.92.41-.92.92v.31h-3.7v-.31c0-.51-.41-.92-.92-.92s-.92.41-.92.92v.32h-3.7v-.32c0-.51-.41-.92-.92-.92s-.92.41-.92.92v.32h-3.7v-.32c0-.51-.41-.92-.92-.92s-.92.41-.92.92v.33H2.54L29.46 2.53v4.65h-.82c-.51 0-.92.41-.92.92s.41.92.92.92h.82v3.7h-.82c-.51 0-.92.41-.92.92s.41.92.92.92h.82v3.7h-.82c-.51 0-.92.41-.92.92s.41.92.92.92h.82v3.7h-.82c-.51 0-.92.41-.92.92s.41.92.92.92h.82v3.8h-4.13Z"/>
    <path d="M24.85 13.44c-.43-.18-.93-.08-1.26.25L13.54 23.74c-.33.33-.43.83-.25 1.26.18.43.6.71 1.07.71h10.05c.64 0 1.15-.52 1.15-1.15V14.51c0-.47-.28-.89-.71-1.07Zm-1.6 9.96h-6.11l6.11-6.11v6.11Z"/>
  </g>
</svg>