<svg  xmlns="http://www.w3.org/2000/svg">
<g id="k178" width="27" height="32" viewBox="0 0 27 32">
    <path d="M23.19 0H3.81C1.71 0 0 1.69 0 3.77v24.45c0 2.08 1.71 3.77 3.81 3.77H23.2c2.1 0 3.81-1.69 3.81-3.77V3.77C27.01 1.69 25.3 0 23.2 0ZM7.47 2.53h12.05v20.3c0 .68-.56 1.24-1.25 1.24H8.72c-.69 0-1.25-.56-1.25-1.24V2.53Zm16.98 25.7c0 .69-.56 1.24-1.25 1.24H3.81c-.69 0-1.25-.56-1.25-1.24V3.77c0-.68.56-1.24 1.25-1.24h1.11v20.3c0 2.08 1.71 3.77 3.81 3.77h9.55c2.1 0 3.81-1.69 3.81-3.77V2.53h1.11c.69 0 1.25.56 1.25 1.24v24.45Z"/>
    <path d="M10.84 12.09h5.32c.99 0 1.79-.8 1.79-1.77V5.91c0-.98-.8-1.77-1.79-1.77h-5.32c-.99 0-1.79.8-1.79 1.77v4.41c0 .98.8 1.77 1.79 1.77Zm5.27-6.19v4.36l-5.22.05-.05-4.36 5.27-.05Zm-2.61 8.41c-.77 0-1.39.62-1.39 1.38s.62 1.38 1.39 1.38 1.39-.62 1.39-1.38-.62-1.38-1.39-1.38Zm0 4.29c-.77 0-1.39.62-1.39 1.38s.62 1.38 1.39 1.38 1.39-.62 1.39-1.38-.62-1.38-1.39-1.38Z"/>
  </g>
</svg>