<svg xmlns="http://www.w3.org/2000/svg" viewBox="0 0 22 32>
<g id="k1240" ">
    <path d="M16.98 8.92V5.65c0-.69-.56-1.24-1.26-1.24h-1.57V1.98h1.91c.56 0 1.01-.44 1.01-.99S16.62 0 16.06 0H5.09C3.32 0 1.68.95.82 2.47L.13 3.69c-.27.48-.1 1.08.39 1.35.16.09.32.12.49.12.35 0 .7-.18.88-.51l.69-1.22c.51-.9 1.47-1.45 2.51-1.45h4.03V4.4H7.55c-.7 0-1.26.56-1.26 1.24v3.27c-3.05 1.46-5.02 4.5-5.02 7.93V28.1c0 2.15 1.78 3.9 3.97 3.9h12.79c2.19 0 3.97-1.75 3.97-3.9V16.84c0-3.42-1.97-6.46-5.02-7.93Zm-5.83-4.64V2.12h.98v2.16h-.98ZM8.83 6.89h5.63v1.48H8.83V6.89Zm10.65 21.22c0 .78-.65 1.42-1.44 1.42H5.24c-.8 0-1.44-.64-1.44-1.42V16.85c0-2.72 1.74-5.11 4.34-6h7c2.6.89 4.34 3.28 4.34 6v11.26Z" stroke-width="0"/>
    <path d="M15.45 15.33H7.83c-.5 0-.91.4-.91.89s.41.89.91.89h7.62c.5 0 .91-.4.91-.89s-.41-.89-.91-.89ZM14.43 18.52H8.84c-.5 0-.91.4-.91.89s.41.89.91.89h5.59c.5 0 .91-.4.91-.89s-.41-.89-.91-.89Z" stroke-width="0"/>
  </g>
</svg>