<svg xmlns="http://www.w3.org/2000/svg"  viewBox="0 0 32 19">
<g  id="k1546">
    <path d="M28.6 2.84c-.34 0-.66.07-.96.16-.23-1.69-1.64-3-3.35-3-1.87 0-3.4 1.56-3.4 3.48v4.76h-9.78V3.48C11.11 1.56 9.59 0 7.71 0 6 0 4.59 1.31 4.36 3c-.31-.09-.63-.16-.96-.16-1.87 0-3.4 1.57-3.4 3.5v6.33c0 1.93 1.52 3.5 3.4 3.5.34 0 .66-.07.96-.16.23 1.69 1.64 3 3.35 3 1.87 0 3.4-1.56 3.4-3.48v-4.76h9.78v4.76c0 1.92 1.52 3.48 3.4 3.48 1.71 0 3.12-1.31 3.35-3 .31.09.63.16.96.16 1.87 0 3.4-1.57 3.4-3.5V6.34c0-1.93-1.52-3.5-3.4-3.5ZM3.4 13.64c-.51 0-.93-.44-.93-.97V6.34c0-.53.42-.97.93-.97.49 0 .88.39.92.89v6.49c-.04.5-.43.89-.92.89Zm5.25 1.88c0 .53-.42.95-.93.95s-.93-.43-.93-.95v-2.69c0-.05.02-.1.02-.16V6.34c0-.05-.01-.1-.02-.16V3.49c0-.53.42-.95.93-.95s.93.43.93.95v12.04Zm15.64.95c-.51 0-.93-.43-.93-.95V3.48c0-.53.42-.95.93-.95s.93.43.93.95v2.69c0 .05-.02.1-.02.16v6.33c0 .05.01.1.02.16v2.69c0 .53-.42.95-.93.95Zm5.25-3.81c0 .53-.42.97-.93.97-.49 0-.88-.39-.92-.89V6.25c.04-.5.43-.89.92-.89.51 0 .93.44.93.97v6.33Z"/>
  </g>
</svg>