<svg xmlns="http://www.w3.org/2000/svg">
<g id="k1013" viewBox="0 0 32 31">
    <path d="M21.99.56C13.19-1.9 3.71 4 .83 13.72-.76 19.1-.06 24.73 2.76 29.17 3.5 30.34 4.79 31 6.13 31c.49 0 .98-.09 1.46-.27l21.67-8.33c1.34-.52 2.29-1.7 2.49-3.09C33.06 9.95 29.24 2.59 21.99.57ZM3.15 14.4c.29-.97.65-1.88 1.07-2.76l11.77-.04v3.37c0 1.93-1.42 3.7-3.61 4.48l-9.61 3.32c-.56-2.69-.45-5.56.38-8.38Zm26.2 4.57c-.07.53-.44.98-.97 1.18L6.72 28.48c-.71.27-1.52.02-1.91-.6-.61-.96-1.1-1.98-1.48-3.05l9.76-3.37c3.06-1.1 5.03-3.65 5.03-6.49v-3.59c0-1.06-.94-1.92-2.09-1.92L5.44 9.5c2.94-4.39 7.64-7.11 12.47-7.11 1.14 0 2.3.15 3.43.47 6.01 1.68 9.16 8 8.02 16.09Z"/>
    <path d="M22.46 6.37c-1.42 0-2.57 1.15-2.57 2.57s1.15 2.57 2.57 2.57 2.57-1.15 2.57-2.57-1.15-2.57-2.57-2.57Zm0 3.69c-.62 0-1.12-.5-1.12-1.12s.5-1.12 1.12-1.12 1.12.5 1.12 1.12-.5 1.12-1.12 1.12Z"/>
  </g>
</svg>